<?xml version="1.0" encoding="iso-8859-1"?>
<!-- Generator: Adobe Illustrator 19.0.0, SVG Export Plug-In . SVG Version: 6.00 Build 0)  -->
<svg version="1.1" id="Capa_1" xmlns="http://www.w3.org/2000/svg" xmlns:xlink="http://www.w3.org/1999/xlink" x="0px" y="0px"
	 viewBox="0 0 496.485 496.485" style="enable-background:new 0 0 496.485 496.485;" xml:space="preserve">
<circle style="fill:#4FBF9F;" cx="248.242" cy="248.242" r="248.242"/>
<path style="fill:#FDBF5E;" d="M186.958,432.873l-24.824,55.855h-44.218l108.606-246.691h44.218l108.606,246.691h-44.218
	l-24.824-55.855H186.958z M293.236,394.085l-44.994-101.624l-44.994,101.624H293.236L293.236,394.085z"/>
<path style="fill:#193651;" d="M379.345,496.485L379.345,496.485h-44.218c-3.103,0-6.206-1.551-6.982-4.655l-22.497-51.2H191.612
	l-22.497,51.2c-1.552,3.103-3.879,4.655-6.982,4.655h-44.218c-2.327,0-5.43-1.551-6.206-3.879c-1.552-2.327-1.552-4.655-0.776-6.982
	l108.606-246.691c1.552-3.103,3.879-4.655,6.982-4.655h44.218c3.103,0,6.206,1.552,6.982,4.655l107.83,245.139
	c0.776,1.552,1.552,3.103,1.552,4.655C387.103,493.382,383.224,496.485,379.345,496.485z M339.782,480.97h27.152L265.309,249.794
	h-34.133L129.552,480.97h27.152l22.497-51.2c1.552-3.103,3.879-4.655,6.982-4.655h123.345c3.103,0,6.206,1.552,6.982,4.655
	L339.782,480.97z M293.236,401.842h-89.988c-2.327,0-5.43-1.552-6.206-3.879c-1.552-2.327-1.552-4.655-0.776-6.982l44.994-101.624
	c1.552-3.103,3.879-4.655,6.982-4.655s6.206,1.552,6.982,4.655l44.994,101.624c0.776,2.327,0.776,5.43-0.776,6.982
	C297.891,401.067,295.564,401.842,293.236,401.842z M215.661,386.327H281.6l-33.358-74.473L215.661,386.327z"/>
<rect x="31.03" y="7.758" style="fill:#CFD0D1;" width="434.424" height="291.685"/>
<path style="fill:#193651;" d="M465.455,307.2H31.03c-4.655,0-7.758-3.103-7.758-7.758V7.758C23.273,3.103,26.376,0,31.03,0h434.424
	c4.655,0,7.758,3.103,7.758,7.758v291.685C473.212,304.097,470.109,307.2,465.455,307.2z M38.788,291.685h418.909V15.515H38.788
	V291.685z"/>
<g>
	<rect x="62.193" y="38.92" style="fill:#FFFFFF;" width="372.364" height="229.624"/>
	<rect x="7.758" y="299.442" style="fill:#FFFFFF;" width="480.97" height="36.461"/>
</g>
<g>
	<path style="fill:#193651;" d="M488.727,343.661H7.758c-4.655,0-7.758-3.103-7.758-7.758v-36.461c0-4.655,3.103-7.758,7.758-7.758
		h480.97c4.655,0,7.758,3.103,7.758,7.758v36.461C496.485,340.558,493.382,343.661,488.727,343.661z M15.515,328.145H480.97V307.2
		H15.515V328.145z"/>
	<path style="fill:#193651;" d="M135.758,176.873l-8.533,18.618h-14.739l35.685-81.455h14.739l35.685,81.455h-14.739l-8.533-18.618
		H135.758z M171.442,163.685l-14.739-33.358l-14.739,33.358L171.442,163.685L171.442,163.685z"/>
	<path style="fill:#193651;" d="M256.776,194.715h-35.685v-81.455h31.806c5.43,0,10.085,0.776,13.964,2.327s6.982,3.103,9.309,5.43
		c3.879,3.879,5.43,9.309,5.43,13.964c0,6.206-2.327,10.861-6.206,13.964c-1.552,0.776-2.327,1.552-3.103,2.327
		c-0.776,0-1.552,0.776-3.103,1.552c5.43,0.776,9.309,3.103,12.412,6.982c3.103,3.103,4.655,7.758,4.655,13.188
		s-2.327,10.861-6.206,14.739C275.394,192.388,267.636,194.715,256.776,194.715z M234.279,147.394h17.842
		c10.085,0,14.739-3.103,14.739-10.085c0-3.879-1.552-6.982-3.879-8.533c-2.327-1.552-6.206-2.327-10.861-2.327h-17.842V147.394z
		 M234.279,182.303H256c5.43,0,9.309-0.776,11.636-2.327s3.879-4.655,3.879-9.309c0-6.982-5.43-10.861-17.067-10.861h-20.17V182.303
		L234.279,182.303z"/>
	<path style="fill:#193651;" d="M350.642,182.303c4.655,0,8.533-0.776,12.412-2.327c3.103-1.552,6.982-3.879,10.861-7.758
		l8.533,9.309c-8.533,9.309-19.394,14.739-31.806,14.739c-12.412,0-22.497-3.879-31.03-11.636
		c-7.758-7.758-12.412-17.842-12.412-30.255s3.879-22.497,12.412-30.255c8.533-7.758,18.618-12.412,31.806-12.412
		c12.412,0,23.273,4.655,31.806,13.964l-8.533,9.309c-3.879-3.879-7.758-6.206-10.861-7.758c-3.103-1.552-7.758-2.327-12.412-2.327
		c-8.533,0-15.515,2.327-20.945,7.758c-5.43,5.43-8.533,12.412-8.533,20.17c0,8.533,3.103,15.515,8.533,20.945
		C335.903,179.976,342.885,182.303,350.642,182.303z"/>
</g>
<rect x="85.333" y="62.061" style="fill:#193651;" width="15.515" height="15.515"/>
<rect x="395.636" y="62.061" style="fill:#193651;" width="15.515" height="15.515"/>
<rect x="85.333" y="229.624" style="fill:#193651;" width="15.515" height="15.515"/>
<rect x="395.636" y="229.624" style="fill:#193651;" width="15.515" height="15.515"/>
<g>
</g>
<g>
</g>
<g>
</g>
<g>
</g>
<g>
</g>
<g>
</g>
<g>
</g>
<g>
</g>
<g>
</g>
<g>
</g>
<g>
</g>
<g>
</g>
<g>
</g>
<g>
</g>
<g>
</g>
</svg>
