<?xml version="1.0" encoding="iso-8859-1"?>
<!-- Generator: Adobe Illustrator 19.0.0, SVG Export Plug-In . SVG Version: 6.00 Build 0)  -->
<svg version="1.1" id="Layer_1" xmlns="http://www.w3.org/2000/svg" xmlns:xlink="http://www.w3.org/1999/xlink" x="0px" y="0px"
	 viewBox="0 0 491.52 491.52" style="enable-background:new 0 0 491.52 491.52;" xml:space="preserve">
<circle style="fill:#EFC84A;" cx="245.76" cy="245.76" r="245.76"/>
<path style="opacity:0.1;enable-background:new    ;" d="M488.813,282.205L373.862,167.219l-1.024-1.024l-0.154-0.102
	c-0.563-0.358-1.229-0.563-1.946-0.563c-0.87,0-1.741,0.307-2.355,0.922l-53.453-53.452c-10.65-10.701-28.007-10.701-38.707,0
	c-10.65,10.649-10.65,28.006,0,38.656l22.682,22.682h-42.854l-7.834-7.834c-0.666-0.615-1.536-0.973-2.458-0.973
	c-2.048,0-3.738,1.689-3.738,3.789v5.018H131.123l-7.731-7.68l-0.307-0.308c-0.614-0.512-1.433-0.819-2.304-0.819
	c-2.099,0-3.738,1.689-3.738,3.789v82.688H104.96v16.947l8.96,8.96V386.56l103.252,103.251c9.385,1.088,18.912,1.709,28.588,1.709
	C369.103,491.52,471.202,400.648,488.813,282.205z"/>
<circle style="fill:#3A556A;" cx="295.603" cy="132.326" r="27.366"/>
<circle style="fill:#FFFFFF;" cx="295.603" cy="132.326" r="23.388"/>
<g>
	<rect x="294.963" y="110.572" style="fill:#E1E6E9;" width="1.321" height="3.333"/>
	<rect x="294.963" y="150.748" style="fill:#E1E6E9;" width="1.321" height="3.333"/>
	<rect x="314.004" y="131.671" style="fill:#E1E6E9;" width="3.333" height="1.321"/>
	<rect x="273.864" y="131.671" style="fill:#E1E6E9;" width="3.333" height="1.321"/>
	
		<rect x="305.607" y="113.639" transform="matrix(-0.8471 -0.5315 0.5315 -0.8471 504.4193 375.7493)" style="fill:#E1E6E9;" width="1.321" height="3.333"/>
	
		<rect x="284.263" y="147.673" transform="matrix(-0.8471 -0.5315 0.5315 -0.8471 446.9071 427.2703)" style="fill:#E1E6E9;" width="1.321" height="3.333"/>
	
		<rect x="311.931" y="141.335" transform="matrix(0.5315 -0.8471 0.8471 0.5315 25.3254 331.7901)" style="fill:#E1E6E9;" width="1.321" height="3.333"/>
	
		<rect x="277.914" y="119.974" transform="matrix(0.5315 -0.8471 0.8471 0.5315 27.4815 292.967)" style="fill:#E1E6E9;" width="1.321" height="3.333"/>
	
		<rect x="312.844" y="121.527" transform="matrix(-0.4525 -0.8917 0.8917 -0.4525 345.5216 458.5103)" style="fill:#E1E6E9;" width="1.321" height="3.333"/>
	
		<rect x="277.054" y="139.752" transform="matrix(-0.4525 -0.8917 0.8917 -0.4525 277.2827 453.0659)" style="fill:#E1E6E9;" width="1.321" height="3.333"/>
	
		<rect x="304.056" y="148.561" transform="matrix(0.8917 -0.4525 0.4525 0.8917 -34.9965 154.1599)" style="fill:#E1E6E9;" width="1.321" height="3.333"/>
	
		<rect x="285.846" y="112.755" transform="matrix(0.8917 -0.4525 0.4525 0.8917 -20.7641 142.0431)" style="fill:#E1E6E9;" width="1.321" height="3.333"/>
</g>
<g>
	<path style="fill:#3A556A;" d="M295.601,118.107c-0.513,0-0.93,0.416-0.93,0.93v12.36c0,0.513,0.416,0.93,0.93,0.93
		s0.93-0.416,0.93-0.93v-12.36C296.53,118.524,296.114,118.107,295.601,118.107z"/>
	<path style="fill:#3A556A;" d="M305.486,132.327c0-0.513-0.416-0.93-0.93-0.93h-8.035c-0.513,0-0.93,0.416-0.93,0.93
		c0,0.513,0.416,0.93,0.93,0.93h8.035C305.07,133.257,305.486,132.84,305.486,132.327z"/>
</g>
<polygon style="fill:#E56353;" points="289.011,140.194 293.261,135.944 292.948,135.631 310.117,118.463 309.491,117.837 
	292.323,135.005 292.01,134.692 287.76,138.942 "/>
<circle style="fill:#FCD462;" cx="295.603" cy="132.326" r="1.802"/>
<polygon style="fill:#EBF0F3;" points="184.596,271.982 185.964,267.513 193.943,244.823 194.404,239.195 191.159,234.449 
	174.242,234.449 170.009,240.692 175.885,271.982 "/>
<rect x="174.234" y="228.188" style="fill:#F6C358;" width="16.963" height="14.694"/>
<polygon style="fill:#E56353;" points="179.702,242.883 177.497,246.23 179.702,249.577 185.7,249.577 187.905,246.23 
	185.7,242.883 "/>
<g>
	<polygon style="fill:#E1E6E9;" points="170.996,239.195 174.243,234.449 180.888,242.862 175.528,252.253 	"/>
	<polygon style="fill:#E1E6E9;" points="195.307,238.845 191.158,234.449 184.513,242.862 189.226,251.12 	"/>
</g>
<polygon style="fill:#D15241;" points="188.555,271.982 185.7,249.577 179.702,249.577 176.845,271.982 "/>
<path style="fill:#3A556A;" d="M217.903,255.942c0,0-1.24-8.131-9.508-10.198l-3.181-0.736c-2.603-0.602-5.015-1.844-7.019-3.613
	l-2.889-2.55l-0.096,0.305l-11.108,32.833h36.893L217.903,255.942z"/>
<path style="fill:#2F4859;" d="M186.112,271.982c3.889-7.056,9.07-15.213,13.937-18.877c0,0-1.642-1.884-4.4-3.144
	c0,0,4.148-1.035,5.599-2.278c0,0-2.718-6.101-5.941-8.838c0,0-9.839,17.878-13.791,33.138H186.112z"/>
<path style="fill:#3A556A;" d="M171.329,239.15l-0.096-0.305l-2.889,2.55c-2.004,1.769-4.416,3.011-7.021,3.613l-3.179,0.736
	c-8.268,2.067-9.508,10.198-9.508,10.198l-3.092,16.04h36.893L171.329,239.15z"/>
<path style="fill:#2F4859;" d="M180.427,271.982c-3.889-7.056-9.07-15.213-13.937-18.877c0,0,1.642-1.884,4.4-3.144
	c0,0-4.148-1.035-5.599-2.278c0,0,2.718-6.101,5.941-8.838c0,0,9.839,17.878,13.791,33.138H180.427z"/>
<g>
	
		<ellipse transform="matrix(-0.9555 -0.2951 0.2951 -0.9555 319.7744 482.9137)" style="fill:#FCD462;" cx="196.324" cy="217.329" rx="3.067" ry="4.931"/>
	
		<ellipse transform="matrix(-0.2951 -0.9555 0.9555 -0.2951 11.3592 443.0647)" style="fill:#FCD462;" cx="169.118" cy="217.342" rx="4.931" ry="3.067"/>
	<path style="fill:#FCD462;" d="M196.898,208.431v-9.694h-27.52v9.833h0.096c-0.235,1.16-0.372,2.423-0.372,3.824
		c0,9.978,6.313,22.477,14.1,22.477c7.787,0,14.1-12.499,14.1-22.477C197.302,210.936,197.153,209.628,196.898,208.431z"/>
</g>
<path style="fill:#64798A;" d="M198.335,200.718c0,0-2.715-7.941-15.635-7.096c-12.92-0.845-15.635,7.096-15.635,7.096
	c-0.676,3.886,2.112,14.615,2.112,14.615h0.558v-10.337c0-1.23,0.329-2.463,1.067-3.448c1.869-2.494,4.028-0.831,4.028-0.831
	c3.625,3.717,7.87,3.295,7.87,3.295s4.245,0.422,7.87-3.295c0,0,2.159-1.663,4.028,0.831c0.738,0.985,1.067,2.217,1.067,3.448
	v10.337h0.558C196.223,215.333,199.011,204.604,198.335,200.718z"/>
<polygon style="fill:#EBF0F3;" points="309.576,271.982 310.945,267.513 318.924,244.823 319.385,239.195 316.14,234.449 
	299.223,234.449 294.989,240.692 300.866,271.982 "/>
<rect x="299.213" y="228.188" style="fill:#F6C358;" width="16.963" height="14.694"/>
<polygon style="fill:#E56353;" points="304.682,242.883 302.477,246.23 304.682,249.577 310.68,249.577 312.885,246.23 
	310.68,242.883 "/>
<g>
	<polygon style="fill:#E1E6E9;" points="295.977,239.195 299.223,234.449 305.869,242.862 300.509,252.253 	"/>
	<polygon style="fill:#E1E6E9;" points="320.287,238.845 316.139,234.449 309.493,242.862 314.207,251.12 	"/>
</g>
<polygon style="fill:#D15241;" points="313.536,271.982 310.681,249.577 304.682,249.577 301.826,271.982 "/>
<path style="fill:#3A556A;" d="M342.884,255.942c0,0-1.24-8.131-9.508-10.198l-3.181-0.736c-2.603-0.602-5.015-1.844-7.019-3.613
	l-2.889-2.55l-0.096,0.305l-11.108,32.833h36.893L342.884,255.942z"/>
<path style="fill:#2F4859;" d="M311.092,271.982c3.889-7.056,9.07-15.213,13.937-18.877c0,0-1.642-1.884-4.4-3.144
	c0,0,4.148-1.035,5.599-2.278c0,0-2.718-6.101-5.941-8.838c0,0-9.839,17.878-13.791,33.138H311.092z"/>
<path style="fill:#3A556A;" d="M296.309,239.15l-0.096-0.305l-2.889,2.55c-2.004,1.769-4.417,3.011-7.021,3.613l-3.179,0.736
	c-8.268,2.067-9.508,10.198-9.508,10.198l-3.092,16.04h36.893L296.309,239.15z"/>
<path style="fill:#2F4859;" d="M305.408,271.982c-3.889-7.056-9.07-15.213-13.937-18.877c0,0,1.642-1.884,4.4-3.144
	c0,0-4.148-1.035-5.599-2.278c0,0,2.718-6.101,5.941-8.838c0,0,9.839,17.878,13.791,33.138H305.408z"/>
<g>
	
		<ellipse transform="matrix(-0.9555 -0.2951 0.2951 -0.9555 564.1443 519.8207)" style="fill:#FCD462;" cx="321.294" cy="217.344" rx="3.067" ry="4.931"/>
	
		<ellipse transform="matrix(-0.2951 -0.9555 0.9555 -0.2951 173.2194 562.4777)" style="fill:#FCD462;" cx="294.097" cy="217.341" rx="4.931" ry="3.067"/>
	<path style="fill:#FCD462;" d="M321.879,208.431v-9.694h-27.52v9.833h0.096c-0.235,1.16-0.372,2.423-0.372,3.824
		c0,9.978,6.313,22.477,14.1,22.477c7.787,0,14.1-12.499,14.1-22.477C322.283,210.936,322.133,209.628,321.879,208.431z"/>
</g>
<path style="fill:#64798A;" d="M323.316,200.718c0,0-2.715-7.941-15.635-7.096c-12.919-0.845-15.635,7.096-15.635,7.096
	c-0.676,3.886,2.112,14.615,2.112,14.615h0.558v-10.337c0-1.23,0.329-2.463,1.067-3.448c1.869-2.494,4.028-0.831,4.028-0.831
	c3.625,3.717,7.87,3.295,7.87,3.295s4.245,0.422,7.87-3.295c0,0,2.159-1.663,4.028,0.831c0.738,0.985,1.067,2.217,1.067,3.448
	v10.337h0.558C321.204,215.333,323.992,204.604,323.316,200.718z"/>
<rect x="120.781" y="174.336" style="opacity:0.5;fill:#27A2DB;enable-background:new    ;" width="249.958" height="67.123"/>
<g>
	<path style="fill:#DC8744;" d="M120.78,165.547c-2.073,0-3.754,1.68-3.754,3.753v85.22h7.507V169.3
		C124.533,167.227,122.852,165.547,120.78,165.547z"/>
	<path style="fill:#DC8744;" d="M245.76,165.547c-2.073,0-3.753,1.68-3.753,3.753v85.22h7.507V169.3
		C249.513,167.227,247.833,165.547,245.76,165.547z"/>
	<path style="fill:#DC8744;" d="M370.74,165.547c-2.073,0-3.753,1.68-3.753,3.753v85.22h7.507V169.3
		C374.494,167.227,372.813,165.547,370.74,165.547z"/>
</g>
<rect x="113.92" y="260.48" style="fill:#64798A;" width="263.68" height="126.08"/>
<rect x="113.92" y="260.48" style="fill:#3A556A;" width="263.68" height="16.993"/>
<rect x="104.96" y="252.006" style="fill:#2F4859;" width="281.6" height="16.993"/>
<path style="fill:#FCD462;" d="M244.076,363.33v-5.595c-7.005-0.714-13.292-3.499-18.856-8.352l5.595-6.668
	c4.291,3.73,8.708,5.951,13.261,6.668v-14.87c-5.776-1.379-10.005-3.194-12.687-5.442c-2.682-2.249-4.023-5.583-4.023-10.002
	s1.541-8.034,4.634-10.847c3.094-2.81,7.117-4.341,12.076-4.597v-3.833h4.903v3.908c5.62,0.412,10.934,2.327,15.943,5.751
	l-4.984,7.051c-3.374-2.401-7.023-3.883-10.959-4.447v14.409h0.231c5.876,1.382,10.192,3.247,12.949,5.595
	c2.763,2.352,4.142,5.763,4.142,10.233c0,4.472-1.584,8.115-4.753,10.922c-3.169,2.813-7.354,4.344-12.569,4.6v5.517H244.076z
	 M238.668,313.857c-1.304,1.148-1.952,2.579-1.952,4.291s0.511,3.066,1.534,4.061c1.017,0.998,2.963,1.955,5.826,2.875v-13.261
	C241.774,312.03,239.972,312.706,238.668,313.857z M254.804,347.465c1.428-1.173,2.146-2.654,2.146-4.444
	c0-1.787-0.561-3.206-1.684-4.254c-1.129-1.048-3.225-2.03-6.287-2.95v13.794C251.43,349.358,253.37,348.64,254.804,347.465z"/>
<g>
</g>
<g>
</g>
<g>
</g>
<g>
</g>
<g>
</g>
<g>
</g>
<g>
</g>
<g>
</g>
<g>
</g>
<g>
</g>
<g>
</g>
<g>
</g>
<g>
</g>
<g>
</g>
<g>
</g>
</svg>
