<svg id="Layer_5" enable-background="new 0 0 64 64"  viewBox="0 0 64 64"  xmlns="http://www.w3.org/2000/svg"><g><g><g><path d="m34.39 9.08-.16.06h-3.81l-1.15.29c-.87.22-1.57.81-1.95 1.57h-.32-1c-.83 0-1.58.34-2.12.88-.11.11-.2.22-.29.34-.38-.9-.59-1.88-.59-2.89 0-4.05 3.28-7.33 7.33-7.33h3.34c2.03 0 3.86.82 5.18 2.15 1.33 1.32 2.15 3.15 2.15 5.18 0 1.01-.21 1.99-.59 2.89-.54-.74-1.42-1.22-2.41-1.22h-1c-1.27 0-2.14-.81-2.61-1.92z" fill="#b27946"/></g><g><path d="m11 36c0 1.72 1.08 3.18 2.6 3.74l-.09.22-.51 2.04c-1.52.57-2.9 1.39-4.09 2.39-1.17-1.09-1.91-2.66-1.91-4.39v-10c0-4.97 4.03-9 9-9 2.48 0 4.74 1.01 6.36 2.64.71.71 1.31 1.54 1.75 2.46.57 1.18.89 2.5.89 3.9v10c0 1.74-.74 3.3-1.91 4.39v.01s0-.01-.01 0c-1.19-1.02-2.57-1.83-4.08-2.4l-.5-2-.1-.26c1.52-.56 2.6-2.02 2.6-3.74v-5c-1.28 0-2.51-.51-3.41-1.41l-1.59-1.59-1.59 1.59c-.9.9-2.13 1.41-3.41 1.41z" fill="#656d78"/></g><g><path d="m39.59 31.22c-.38-.9-.59-1.88-.59-2.89 0-.92.17-1.8.48-2.6 1.04-2.77 3.72-4.73 6.85-4.73h3.32c1.47 0 2.84.73 3.65 1.95l.7 1.05c1.79.6 3 2.27 3 4.16v1.65c0 .61-.13 1.21-.37 1.75-.51-.93-1.49-1.56-2.63-1.56h-1c-1.28 0-2.51-.51-3.41-1.41l-1.59-1.59-1.59 1.59c-.9.9-2.13 1.41-3.41 1.41h-1c-.99 0-1.87.48-2.41 1.22z" fill="#656d78"/></g><g><path d="m28.61 45.55c-.16.61-.6 1.11-1.18 1.36-.01 0-.02 0-.02.01-.59.25-1.27.2-1.82-.13l-.02-.01c-.13-.08-.26-.14-.4-.17l.01-.02c-.61-.8-1.31-1.54-2.09-2.19v-.01c1.17-1.09 1.91-2.65 1.91-4.39v-10c0-1.4-.32-2.72-.89-3.9l.06-.03c1.11-1.09 2.42-2 3.88-2.66l.95 5.59 1.29-.86.71 3.86-1.63 12.39.01.01c-.37.26-.65.66-.77 1.12z" fill="#b4dd7f"/></g><g><path d="m44.19 42.34c-2.46 1.26-3.92 2.46-5.19 4.02l.19.16c-.26.03-.52.12-.76.26l-.02.01c-.55.33-1.23.38-1.82.13 0-.01-.01-.01-.02-.01-.58-.25-1.02-.75-1.18-1.36v-.03c-.12-.46-.4-.86-.77-1.12l.01-.01-1.63-12.39.71-3.86 1.29.86.95-5.6c1.3.6 2.49 1.39 3.53 2.33-.31.8-.48 1.68-.48 2.6 0 1.01.21 1.99.59 2.89-.37.5-.59 1.11-.59 1.78 0 .83.34 1.58.88 2.12s1.29.88 2.12.88h1c0 1.72 1.08 3.18 2.6 3.74l-.09.22-.51 2.04c-.28.1-.55.22-.81.34z" fill="#b4dd7f"/></g><g><path d="m35 23c.32.12.64.25.95.4l-.95 5.6-1.29-.86-1.71-1.14z" fill="#a0d468"/></g><g><path d="m30.29 28.14-1.29.86-.95-5.59v-.01c.31-.15.63-.28.95-.4l3 4z" fill="#a0d468"/></g><g><path d="m33 32 1.63 12.39-.01.01c-.34-.26-.75-.4-1.19-.4h-2.86c-.44 0-.85.14-1.19.4l-.01-.01 1.63-12.39z" fill="#ff826e"/></g><g><path d="m33.71 28.14-.71 3.86h-2l-.71-3.86 1.71-1.14z" fill="#fc6e51"/></g><g><path d="m9 58h-5l.06-4.51c.29-2.61 1.3-5.02 2.85-7.01.59-.76 1.26-1.46 2-2.09 1.19-1 2.57-1.82 4.09-2.39l.75 6 1.25 10z" fill="#ff826e"/></g><g><path d="m19.52 54.61c-.89.23-1.52 1.04-1.52 1.96v1.43h-1l1.25-10 .75-6c1.51.57 2.89 1.38 4.08 2.4.01-.01.01 0 .01 0 .78.65 1.48 1.39 2.09 2.19l-.01.02c-.71-.24-1.51-.07-2.06.48l-2.02 2.02c-.65.65-.78 1.67-.31 2.46l.01.02c.33.55.38 1.23.13 1.82-.01 0-.01.01-.01.02-.25.58-.75 1.02-1.36 1.18z" fill="#ff826e"/></g><g><path d="m39 46.36c1.27-1.56 2.73-2.76 5.19-4.02l.81 5.66 3-3 3 3 .81-5.66c4.48 2 7.58 6.23 8.13 11.15l.06 4.51h-5-9v-1.43c0-.92-.63-1.73-1.52-1.96h-.03c-.61-.16-1.11-.6-1.36-1.18 0-.01 0-.02-.01-.02-.25-.59-.2-1.27.13-1.82l.01-.02c.47-.79.34-1.81-.31-2.46l-2.02-2.02c-.45-.45-1.09-.65-1.7-.57z" fill="#4fc1e9"/></g><g><path d="m51.81 42.34-.81 5.66-3-3 3-3c.27.1.54.21.81.34z" fill="#4fc1e9"/></g><g><path d="m48 45-3 3-.81-5.66c.26-.12.53-.24.81-.34z" fill="#4fc1e9"/></g><g><path d="m17 58h1 6 16 6 9 5c1.1 0 2 .9 2 2v2h-60v-2c0-1.1.9-2 2-2h5 6z" fill="#cf9e76"/></g><g><path d="m36.59 46.92c.59.25 1.27.2 1.82-.13l.02-.01c.24-.14.5-.23.76-.26.61-.08 1.25.12 1.7.57l2.02 2.02c.65.65.78 1.67.31 2.46l-.01.02c-.33.55-.38 1.23-.13 1.82.01 0 .01.01.01.02.25.58.75 1.02 1.36 1.18h.03c.89.23 1.52 1.04 1.52 1.96v1.43h-6c0-4.42-3.58-8-8-8s-8 3.58-8 8h-6v-1.43c0-.92.63-1.73 1.52-1.96h.03c.61-.16 1.11-.6 1.36-1.18 0-.01 0-.02.01-.02.25-.59.2-1.27-.13-1.82l-.01-.02c-.47-.79-.34-1.81.31-2.46l2.02-2.02c.55-.55 1.35-.72 2.06-.48.14.03.27.09.4.17l.02.01c.55.33 1.23.38 1.82.13 0-.01.01-.01.02-.01.58-.25 1.02-.75 1.18-1.36v-.03c.12-.46.4-.86.77-1.12.34-.26.75-.4 1.19-.4h2.86c.44 0 .85.14 1.19.4.37.26.65.66.77 1.12v.03c.16.61.6 1.11 1.18 1.36.01 0 .02 0 .02.01z" fill="#fcd770"/></g><g><path d="m18.25 48-1.25 10h-2l-1.25-10z" fill="#e6e9ed"/></g><g><path d="m17 40c.49 0 .97-.09 1.4-.26l.1.26.5 2-.75 6h-4.5l-.75-6 .51-2.04.09-.22c.43.17.91.26 1.4.26z" fill="#f0d0b4"/></g><g><path d="m11 36v-5c1.28 0 2.51-.51 3.41-1.41l1.59-1.59 1.59 1.59c.9.9 2.13 1.41 3.41 1.41v5c0 1.72-1.08 3.18-2.6 3.74-.43.17-.91.26-1.4.26h-2c-.49 0-.97-.09-1.4-.26-1.52-.56-2.6-2.02-2.6-3.74z" fill="#f0d0b4"/></g><g><path d="m54 30c1.14 0 2.12.63 2.63 1.56.24.43.37.92.37 1.44 0 .83-.34 1.58-.88 2.12s-1.29.88-2.12.88h-1v-6z" fill="#f0d0b4"/></g><g><path d="m50.5 40 .5 2-3 3-3-3 .51-2.04.09-.22c.43.17.91.26 1.4.26h2c.49 0 .97-.09 1.4-.26z" fill="#f0d0b4"/></g><g><path d="m43 30v6h-1c-.83 0-1.58-.34-2.12-.88s-.88-1.29-.88-2.12c0-.67.22-1.28.59-1.78.54-.74 1.42-1.22 2.41-1.22z" fill="#f0d0b4"/></g><g><path d="m53 30v6c0 1.72-1.08 3.18-2.6 3.74-.43.17-.91.26-1.4.26h-2c-.49 0-.97-.09-1.4-.26-1.52-.56-2.6-2.02-2.6-3.74v-6c1.28 0 2.51-.51 3.41-1.41l1.59-1.59 1.59 1.59c.9.9 2.13 1.41 3.41 1.41z" fill="#f0d0b4"/></g><g><path d="m38 11c.99 0 1.87.48 2.41 1.22.37.5.59 1.11.59 1.78 0 .83-.34 1.58-.88 2.12s-1.29.88-2.12.88h-1v-6z" fill="#f0d0b4"/></g><g><path d="m33 21c.49 0 .97-.09 1.4-.26l.09.22.51 2.04-3 4-3-4 .51-2.04.09-.22c.43.17.91.26 1.4.26z" fill="#f0d0b4"/></g><g><path d="m37 11v6c0 1.72-1.08 3.18-2.6 3.74-.43.17-.91.26-1.4.26h-2c-.49 0-.97-.09-1.4-.26-1.52-.56-2.6-2.02-2.6-3.74v-4.66c0-.48.11-.94.32-1.34.38-.76 1.08-1.35 1.95-1.57l1.15-.29h3.81l.16-.06c.47 1.11 1.34 1.92 2.61 1.92z" fill="#f0d0b4"/></g><g><path d="m27 12.34v4.66h-1c-1.66 0-3-1.34-3-3 0-.67.22-1.28.59-1.78.09-.12.18-.23.29-.34.54-.54 1.29-.88 2.12-.88h1 .32c-.21.4-.32.86-.32 1.34z" fill="#f0d0b4"/></g></g><g><g><path d="m47 58h-2v-1.427c0-.468-.317-.876-.771-.991-.935-.238-1.697-.897-2.062-1.77-.377-.898-.308-1.912.178-2.729.252-.423.188-.935-.144-1.267l-2.018-2.018c-.332-.332-.846-.395-1.246-.156-.838.498-1.851.567-2.732.197-.89-.372-1.549-1.134-1.781-2.047-.121-.475-.528-.792-.997-.792h-2.854c-.468 0-.876.317-.991.771-.238.935-.897 1.697-1.77 2.062-.898.377-1.912.308-2.729-.178-.424-.252-.936-.188-1.267.144l-2.018 2.018c-.331.332-.396.844-.156 1.246.498.837.567 1.851.197 2.732-.372.89-1.134 1.549-2.047 1.781-.475.121-.792.528-.792.997v1.427h-2v-1.427c0-1.384.937-2.588 2.278-2.93.329-.083.585-.307.709-.602.134-.319.112-.662-.052-.937-.719-1.209-.53-2.723.449-3.702l2.018-2.018c.979-.979 2.493-1.168 3.683-.46.294.175.636.196.937.071.315-.132.538-.388.616-.694.346-1.364 1.551-2.301 2.935-2.301h2.854c1.384 0 2.588.937 2.93 2.278.083.329.307.585.602.709.318.134.661.112.937-.052 1.209-.718 2.724-.53 3.702.449l2.018 2.018c.979.979 1.168 2.493.46 3.683-.175.294-.197.637-.071.937.132.315.388.538.694.616 1.364.346 2.301 1.551 2.301 2.935z"/></g><g><path d="m41 58h-2c0-3.86-3.14-7-7-7s-7 3.14-7 7h-2c0-4.962 4.038-9 9-9s9 4.038 9 9z"/></g><g><path d="m60.989 57.181-.052-3.799c-.604-5.438-4.068-10.037-9.091-12.123l-.251-1.006c1.164-.713 2.023-1.874 2.305-3.253h.1c2.206 0 4-1.794 4-4 0-.534-.109-1.041-.3-1.507.181-.545.3-1.106.3-1.686v-1.644c0-2.202-1.331-4.163-3.348-4.986l-.518-.777c-1.001-1.503-2.676-2.4-4.482-2.4h-3.318c-3.071 0-5.752 1.674-7.197 4.153-1.011-.769-2.112-1.404-3.29-1.893l-.252-1.006c1.164-.713 2.024-1.874 2.305-3.253h.1c2.206 0 4-1.794 4-4 0-.682-.188-1.316-.49-1.879.319-.896.49-1.83.49-2.789 0-4.595-3.738-8.333-8.333-8.333h-3.333c-4.596 0-8.334 3.738-8.334 8.333 0 .958.171 1.892.491 2.788-.303.563-.491 1.196-.491 1.879 0 2.206 1.794 4 4 4h.101c.281 1.38 1.141 2.541 2.305 3.253l-.251 1.005c-1.377.572-2.64 1.344-3.781 2.292-1.787-2.735-4.87-4.55-8.374-4.55-5.514 0-10 4.486-10 10v10c0 1.573.544 3.094 1.505 4.32-2.448 2.373-4.052 5.567-4.448 9.159l-.047 3.702c-1.166.411-2.01 1.513-2.01 2.819v3h62v-3c0-1.306-.844-2.408-2.011-2.819zm-10.403-13.353-.293 2.051-.879-.879zm-.693-2.135-1.893 1.893-1.893-1.893.191-.764c.232.033.462.071.702.071h2c.24 0 .47-.038.701-.071zm-3.307 3.307-.879.879-.293-2.051zm5.414-9c0 1.654-1.346 3-3 3h-2c-1.654 0-3-1.346-3-3v-5.085c1.176-.202 2.26-.761 3.121-1.622l.879-.879.879.879c.861.861 1.945 1.42 3.121 1.622zm2-1v-4c1.103 0 2 .897 2 2s-.897 2-2 2zm-7.667-13h3.318c1.135 0 2.189.564 2.818 1.508l.888 1.332.325.108c1.387.463 2.318 1.754 2.318 3.214v1.394c-.591-.344-1.268-.556-2-.556h-1c-1.022 0-1.984-.398-2.707-1.121l-2.293-2.293-2.293 2.293c-.723.723-1.685 1.121-2.707 1.121h-1c-.686 0-1.323.19-1.888.496-.072-.382-.112-.769-.112-1.163 0-3.492 2.841-6.333 6.333-6.333zm-6.333 11c0-1.103.897-2 2-2v4c-1.103 0-2-.897-2-2zm-7.833-2h-.335l-.441-2.393.609-.405.608.406zm-2.439-3.687-.367-2.165 1.205 1.606zm4.911-2.165-.367 2.165-.838-.558zm3.361-9.148v-4c1.103 0 2 .897 2 2s-.897 2-2 2zm-14-2c0-1.103.897-2 2-2h.029c-.01.114-.029.226-.029.342v3.658c-1.103 0-2-.897-2-2zm5.929-3.701c.671 1.011 1.698 1.701 3.071 1.701v-2c-1.582 0-2-1.962-2-3h-2c0 .482.053.965.156 1.431l-.126.031c-.941.235-1.725.796-2.263 1.538h-.767c-.686 0-1.323.19-1.888.496-.072-.382-.112-.769-.112-1.163 0-3.492 2.841-6.333 6.333-6.333h3.333c3.493 0 6.334 2.841 6.334 6.333 0 .393-.04.781-.112 1.162-.565-.305-1.201-.495-1.888-.495h-1c-1.582 0-2-1.962-2-3h-2c0 2.147 1.028 4.312 3 4.863v5.137c0 1.654-1.346 3-3 3h-2c-1.654 0-3-1.346-3-3v-4.658c0-.919.623-1.717 1.515-1.94zm1.071 11.701h2c.24 0 .47-.038.701-.071l.213.852-1.914 2.552-1.914-2.552.213-.852c.231.033.461.071.701.071zm-3.703 2.936.975 5.751 1.309-.873.407 2.21-1.607 12.238 1.983.261 1.514-11.523h.245l1.514 11.524 1.983-.261-1.608-12.239.407-2.21 1.309.873.977-5.759c.567.337 1.103.723 1.615 1.145-.203.72-.32 1.476-.32 2.26 0 .958.171 1.892.491 2.788-.303.563-.491 1.196-.491 1.879 0 2.206 1.794 4 4 4h.101c.281 1.38 1.141 2.541 2.305 3.253l-.252 1.006c-2.375.989-4.455 2.574-6.039 4.609l1.578 1.229c1.019-1.309 2.286-2.386 3.708-3.213l.891 6.237 3.708-3.707 3.707 3.707.894-6.255c3.516 2.031 5.889 5.587 6.343 9.638l.043 3.496h-3.12l-.877-6.142-1.979.283.836 5.859h-35.714l1.693-13.546c1.782.879 3.343 2.151 4.556 3.741l1.59-1.213c-.452-.593-.95-1.143-1.48-1.658.963-1.226 1.508-2.75 1.508-4.324v-10c0-1.274-.249-2.489-.685-3.61.617-.549 1.277-1.036 1.982-1.454zm-11.414 32.064-1-8h2.235l-1 8zm1.117-18h-2c-1.654 0-3-1.346-3-3v-4.085c1.176-.202 2.26-.761 3.121-1.622l.879-.879.879.879c.861.861 1.945 1.42 3.121 1.622v4.085c0 1.654-1.346 3-3 3zm-2 2h2c.24 0 .47-.038.701-.071l.283 1.133-.617 4.938h-2.735l-.617-4.938.283-1.133c.232.033.462.071.702.071zm-7-1v-10c0-4.411 3.589-8 8-8s8 3.589 8 8v10c0 1.118-.373 2.163-1.039 3.029-.961-.708-2.003-1.307-3.115-1.769l-.252-1.006c1.437-.88 2.406-2.45 2.406-4.254v-6h-1c-1.022 0-1.984-.398-2.707-1.121l-2.293-2.293-2.293 2.293c-.723.723-1.685 1.121-2.707 1.121h-1v6c0 1.804.969 3.374 2.406 4.253l-.252 1.006c-1.124.467-2.164 1.066-3.118 1.767-.664-.866-1.036-1.909-1.036-3.026zm4.174 3.453 1.693 13.547h-3.714l.837-5.858-1.98-.284-.877 6.142h-3.121l.039-3.398c.492-4.431 3.182-8.213 7.123-10.149zm48.826 17.547h-58v-1c0-.551.449-1 1-1h56c.551 0 1 .449 1 1z"/><path d="m17 34.586c-.526.526-1.474.526-2 0l-.293-.293-1.414 1.414.293.293c.645.645 1.502 1 2.414 1s1.77-.355 2.414-1l.293-.293-1.414-1.414z"/><path d="m32 18c.912 0 1.77-.355 2.414-1l.293-.293-1.414-1.414-.293.293c-.526.526-1.474.526-2 0l-.293-.293-1.414 1.414.293.293c.644.645 1.502 1 2.414 1z"/><path d="m47 34.586-.293-.293-1.414 1.414.293.293c.645.645 1.502 1 2.414 1s1.77-.355 2.414-1l.293-.293-1.414-1.414-.293.293c-.526.526-1.474.526-2 0z"/></g></g></g></svg>