<svg  viewBox="0 0 651 333" fill="none" xmlns="http://www.w3.org/2000/svg">
<g id="night">
<rect id="Rectangle 2" x="5.90784" width="629.184" height="332" fill="#291F1F"/>
<g id="sky">
<rect id="sky_2" x="6.89249" width="627.215" height="187.435" fill="url(#paint0_radial)"/>
</g>
<path id="mountain-back-2" d="M482.473 135.592L438.164 192.42H634.108V29.9099L617.369 59.8198L606.538 50.8468L568.137 115.652L536.628 110.667L514.966 152.541L482.473 135.592Z" fill="#626F74"/>
<path id="mountain-back-1" d="M44.3088 83.7477L6.89249 130.607V224.324L419.456 231.303L364.316 165.501L345.608 185.441L270.776 130.607L242.221 145.562C232.375 136.921 212.485 119.44 211.697 118.643C210.91 117.845 189.707 132.933 179.204 140.577L131.942 99.6997L82.7097 145.562L44.3088 83.7477Z" fill="#606B70"/>
<g id="mountain-1">
<path id="Vector 1" d="M79.7558 116.649C66.299 127.283 32.69 157.326 5.90784 192.42V282.15H401.733L315.085 205.381L291.453 237.285L227.452 183.447L208.743 198.402L148.68 145.562L126.034 167.495L79.7558 116.649Z" fill="#2B385B" stroke="black"/>
<path id="Vector 2" d="M85.6636 148.553L80.7404 120.637L125.049 171.483H105.356V187.435L85.6636 207.375L73.8479 171.483L85.6636 148.553Z" fill="#ACBDC5"/>
<path id="Vector 3" d="M135.88 177.465L150.65 147.556L207.759 196.408L191.02 202.39L185.112 217.345L165.419 236.288L135.88 217.345L150.65 196.408L135.88 177.465Z" fill="#ACBDC5"/>
<path id="Vector 4" d="M210.713 213.357L228.436 187.435L240.252 221.333L234.344 236.288L228.436 263.207L203.82 249.249L189.051 236.288L210.713 213.357Z" fill="#ACBDC5"/>
<path id="Vector 5" d="M264.868 243.267L256.006 210.366L276.684 227.315L295.392 243.267L276.684 253.237L283.576 266.198L276.684 281.153L249.114 261.213L264.868 243.267Z" fill="#ACBDC5"/>
<path id="Vector 6" d="M310.161 236.288L315.084 205.381L396.81 281.153L330.839 266.198V250.246L310.161 236.288Z" fill="#ACBDC5"/>
</g>
<g id="mountain-2">
<path id="Vector 7" d="M493.304 174.474L457.857 223.327H635.092V51.8438L616.384 107.676L591.768 87.7357L583.891 142.571C574.701 134.927 563.804 113.259 558.29 151.544C552.776 189.828 544.505 167.495 531.705 151.544L525.797 195.411L493.304 174.474Z" fill="#273044"/>
<path id="Vector 8" d="M509.058 197.405L493.304 177.465L460.811 221.333L493.304 208.372L509.058 197.405Z" fill="#A1ABB0"/>
<path id="Vector 9" d="M542.536 180.456L532.69 153.538L526.782 198.402L532.69 209.369L542.536 180.456Z" fill="#A1ABB0"/>
<path id="Vector 10" d="M572.075 171.483V131.604L557.306 171.483L552.383 201.393L566.167 191.423L572.075 171.483Z" fill="#A1ABB0"/>
<path id="Vector 11" d="M603.584 119.64L592.753 89.7297L583.891 141.574L592.753 169.489L603.584 119.64Z" fill="#A1ABB0"/>
<path id="Vector 12" d="M611.461 128.613L635.092 55.8318V160.517H624.261L611.461 128.613Z" fill="#A1ABB0"/>
</g>
<g id="tree-2">
<path id="Polygon 1" d="M32.0008 243.267L48.6288 299.348H15.3727L32.0008 243.267Z" fill="#354D32"/>
<path id="Polygon 3" d="M71.3863 236.288L88.0144 292.369H54.7582L71.3863 236.288Z" fill="#354D32"/>
<g id="Polygon 6">
<path d="M131.942 295.111L143.027 319.039H120.856L131.942 295.111Z" fill="#354D32"/>
<path d="M131.942 295.111L143.027 319.039H120.856L131.942 295.111Z" fill="#354D32"/>
<path d="M131.942 295.111L143.027 319.039H120.856L131.942 295.111Z" fill="#354D32"/>
<path d="M131.942 295.111L143.027 319.039H120.856L131.942 295.111Z" fill="#354D32"/>
<path d="M131.942 295.111L143.027 319.039H120.856L131.942 295.111Z" fill="#354D32"/>
</g>
<path id="Polygon 21" d="M599.153 177.465L615.781 233.547H582.525L599.153 177.465Z" fill="#354D32"/>
<g id="Polygon 7">
<path d="M147.696 282.15L158.781 306.078H136.61L147.696 282.15Z" fill="#354D32"/>
<path d="M147.696 282.15L158.781 306.078H136.61L147.696 282.15Z" fill="#354D32"/>
<path d="M147.696 282.15L158.781 306.078H136.61L147.696 282.15Z" fill="#354D32"/>
<path d="M147.696 282.15L158.781 306.078H136.61L147.696 282.15Z" fill="#354D32"/>
<path d="M147.696 282.15L158.781 306.078H136.61L147.696 282.15Z" fill="#354D32"/>
</g>
<path id="Polygon 15" d="M542.044 265.201L551.85 310.066H532.238L542.044 265.201Z" fill="#354D32"/>
<g id="Polygon 8">
<path d="M12.8003 266.198L23.8857 290.126H1.71492L12.8003 266.198Z" fill="#354D32"/>
<path d="M12.8003 266.198L23.8857 290.126H1.71492L12.8003 266.198Z" fill="#354D32"/>
<path d="M12.8003 266.198L23.8857 290.126H1.71492L12.8003 266.198Z" fill="#354D32"/>
<path d="M12.8003 266.198L23.8857 290.126H1.71492L12.8003 266.198Z" fill="#354D32"/>
<path d="M12.8003 266.198L23.8857 290.126H1.71492L12.8003 266.198Z" fill="#354D32"/>
</g>
<path id="Polygon 19" d="M480.996 216.348L489.097 251.493H472.895L480.996 216.348Z" fill="#354D32"/>
<path id="Polygon 14" d="M513.982 206.378L533.594 260.964H494.369L513.982 206.378Z" fill="#354D32"/>
</g>
<g id="tree-3">
<path id="Polygon 4" d="M93.0484 257.225L109.676 313.306H76.4203L93.0484 257.225Z" fill="#283225"/>
<g id="Polygon 9">
<path d="M70.894 295.111L81.9794 319.039H59.8086L70.894 295.111Z" fill="#11340D"/>
<path d="M70.894 295.111L81.9794 319.039H59.8086L70.894 295.111Z" fill="#11340D"/>
<path d="M70.894 295.111L81.9794 319.039H59.8086L70.894 295.111Z" fill="#11340D"/>
<path d="M70.894 295.111L81.9794 319.039H59.8086L70.894 295.111Z" fill="#11340D"/>
<path d="M70.894 295.111L81.9794 319.039H59.8086L70.894 295.111Z" fill="#283225"/>
</g>
<path id="Polygon 13" d="M565.183 205.381L584.795 259.967H545.57L565.183 205.381Z" fill="#283225"/>
<path id="Polygon 22" d="M618.353 221.333L637.966 275.919H598.741L618.353 221.333Z" fill="#283225"/>
<path id="Polygon 11" d="M527.274 251.243L537.081 296.108H517.468L527.274 251.243Z" fill="#283225"/>
</g>
<g id="tree-1">
<path id="Polygon 2" d="M51.6936 257.225L68.3216 313.306H35.0655L51.6936 257.225Z" fill="#183A16"/>
<path id="Polygon 5" d="M112.741 257.225L129.369 313.306H96.1131L112.741 257.225Z" fill="#183A16"/>
<path id="Polygon 20" d="M618.846 187.435L635.474 243.517H602.218L618.846 187.435Z" fill="#183A16"/>
<path id="Polygon 10" d="M542.536 229.309L562.149 283.895H522.923L542.536 229.309Z" fill="#183A16"/>
<path id="Polygon 16" d="M494.781 222.33L504.587 267.195H484.975L494.781 222.33Z" fill="#183A16"/>
<path id="Polygon 17" d="M582.414 222.33L592.22 267.195H572.608L582.414 222.33Z" fill="#183A16"/>
<path id="Polygon 12" d="M513.489 243.267L521.59 278.411H505.388L513.489 243.267Z" fill="#132411"/>
<path id="Polygon 18" d="M567.644 243.267L575.745 278.411H559.544L567.644 243.267Z" fill="#183A16"/>
</g>
<g id="river">
<path id="river_2" d="M189.051 313.057C170.222 280.397 270.776 331.003 284.561 308.072C298.346 285.141 348.562 295.111 348.562 295.111C348.562 295.111 390.863 303.602 400.748 285.141C410.316 267.274 365.301 230.306 383.025 236.288C400.748 242.27 436.997 255.778 433.241 236.288C430.78 223.516 412.14 227.541 407.641 215.351C404.544 206.963 401.781 199.128 407.641 192.42C414.265 184.838 423.588 189.788 433.241 192.42C444.775 195.566 456.718 197.467 458.842 209.369C460.204 217.004 451.942 220.62 452.934 228.312C454.139 237.658 465.189 238.18 467.704 247.255C469.469 253.628 453.919 257.225 467.704 264.204C481.488 271.183 506.498 288.332 496.258 301.093C486.018 313.855 542.536 326.35 572.075 331.003H205.79C205.79 331.003 193.85 321.382 189.051 313.057Z" fill="url(#paint1_linear)"/>
</g>
<g id="sunlight">
<ellipse id="sunlight_2" cx="420.441" cy="148.054" rx="137.849" ry="121.135" fill="url(#paint2_radial)"/>
</g>
</g>
<defs>
<radialGradient id="paint0_radial" cx="0" cy="0" r="1" gradientUnits="userSpaceOnUse" gradientTransform="translate(404.687 75.7718) rotate(89.1089) scale(126.634 423.758)">
<stop offset="0.0671197" stop-color="#76A7D5"/>
<stop offset="1" stop-color="#7FBAEF" stop-opacity="0"/>
</radialGradient>
<linearGradient id="paint1_linear" x1="379.393" y1="188.386" x2="379.393" y2="331.003" gradientUnits="userSpaceOnUse">
<stop stop-color="#90A6E0" stop-opacity="0"/>
<stop offset="0.874167" stop-color="#223870"/>
</linearGradient>
<radialGradient id="paint2_radial" cx="0" cy="0" r="1" gradientUnits="userSpaceOnUse" gradientTransform="translate(410.065 148.054) rotate(61.9554) scale(81.9693 99.2249)">
<stop stop-color="#FCFCED"/>
<stop offset="0.980208" stop-color="#D9D9CA" stop-opacity="0"/>
</radialGradient>
</defs>
</svg>
