<?xml version="1.0" encoding="iso-8859-1"?>
<!-- Generator: Adobe Illustrator 19.0.0, SVG Export Plug-In . SVG Version: 6.00 Build 0)  -->
<svg version="1.1" id="Capa_1" xmlns="http://www.w3.org/2000/svg" xmlns:xlink="http://www.w3.org/1999/xlink" x="0px" y="0px"
	 viewBox="0 0 512 512" style="enable-background:new 0 0 512 512;" xml:space="preserve">
<rect x="139.278" y="116.872" style="fill:#64AFFF;" />
<path style="fill:#823214;" d="M184.343,247.108c-4.847,0-9.467-2.813-11.54-7.535l-22.672-51.642
	c-2.797-6.369,0.1-13.8,6.47-16.596c6.372-2.796,13.801,0.1,16.596,6.47l22.672,51.642c2.797,6.369-0.1,13.8-6.47,16.596
	C187.751,246.765,186.033,247.108,184.343,247.108z"/>
<path style="fill:#5F6E9B;" d="M152.846,479.526c-13.033,0.001-24.479-9.497-26.532-22.776l-19.835-128.261
	c-1.579-10.204,2.828-20.41,11.337-26.26l46.612-32.046c12.234-8.411,28.969-5.312,37.38,6.922
	c8.411,12.234,5.312,28.969-6.922,37.38l-32.695,22.478l17.254,111.57c2.269,14.672-7.786,28.405-22.457,30.674
	C155.596,479.422,154.212,479.526,152.846,479.526z"/>
<path style="fill:#414B82;" d="M261.029,479.526c-1.366,0-2.75-0.104-4.142-0.32c-14.672-2.269-24.727-16.002-22.457-30.674
	l17.032-110.133l-37.364-21.725c-12.834-7.462-17.189-23.916-9.727-36.75c7.462-12.835,23.914-17.189,36.751-9.727l53.221,30.945
	c9.565,5.561,14.745,16.414,13.054,27.347l-19.835,128.261C285.508,470.028,274.062,479.525,261.029,479.526z"/>
<g>
	<path style="fill:#783C28;" d="M56.623,512c-11.024,0-19.961-8.937-19.961-19.961V289.906c0-11.024,8.937-19.961,19.961-19.961
		s19.961,8.937,19.961,19.961v202.133C76.583,503.062,67.647,512,56.623,512z"/>
	<path style="fill:#783C28;" d="M449.277,512c-11.023,0-19.961-8.937-19.961-19.961V289.906c0-11.024,8.938-19.961,19.961-19.961
		s19.961,8.937,19.961,19.961v202.133C469.237,503.062,460.3,512,449.277,512z"/>
</g>
<path style="fill:#87AFB9;" d="M420.398,251.783c-1.597,0-3.216-0.339-4.76-1.054c-5.68-2.633-8.15-9.372-5.517-15.053
	l62.092-133.935l-91.44-44.868c-5.62-2.758-7.941-9.55-5.183-15.17c2.758-5.62,9.55-7.941,15.171-5.183l101.394,49.753
	c5.533,2.715,7.883,9.353,5.291,14.944l-66.756,143.995C428.772,249.349,424.676,251.783,420.398,251.783z"/>
<circle style="fill:#6C9BAA;" cx="382.596" cy="67.42" r="19.211"/>
<path style="fill:#B4D7DC;" d="M456.932,262.366h-85.649v-5.639c0-13.739,11.137-24.876,24.876-24.876h35.897
	c13.738,0,24.876,11.137,24.876,24.876v5.639H456.932z"/>
<path style="fill:#A55A3C;" d="M11.393,289.906c0,15.21,12.33,27.54,27.54,27.54h431.614c15.21,0,30.059-12.33,30.059-27.54l0,0
	c0-15.21-14.849-27.54-30.059-27.54H38.932C23.722,262.366,11.393,274.696,11.393,289.906L11.393,289.906z"/>
<path style="fill:#FFB69E;" d="M343.887,231.22l-31.169-100.635c-7.094-22.904-27.969-38.291-51.945-38.291h-45.648h-16.374h-45.648
	c-23.976,0-44.851,15.387-51.944,38.29L69.99,231.219c-2.259,7.294-0.919,15.227,3.612,21.372c4.53,6.146,11.712,9.774,19.347,9.774
	h89.428c13.275,0,24.035-10.761,24.035-24.035c0-13.274-10.761-24.034-24.035-24.034h-56.822l21.522-69.489
	c0.823-2.657,3.245-4.442,6.026-4.442h45.648h16.374h45.648c2.782,0,5.203,1.785,6.026,4.442l21.522,69.489h-56.821
	c-13.275,0-24.035,10.761-24.035,24.034c0,13.275,10.761,24.035,24.035,24.035h89.428c7.635,0,14.817-3.628,19.347-9.774
	C344.805,246.447,346.145,238.514,343.887,231.22z"/>
<path style="fill:#B4D7DC;" d="M399.856,130.697c10.161-21.38,1.194-46.988-20.146-57.33c-21.339-10.342-46.995-1.512-57.481,19.71
	L399.856,130.697z"/>
<path style="fill:#64AFFF;" d="M331.435,191.016l-18.717-60.431c-7.094-22.904-27.969-38.291-51.945-38.291h-107.67
	c-23.976,0-44.851,15.387-51.944,38.29l-18.717,60.431l47.727,8.382l9.11-29.415v-0.783h135.318v0.784l9.11,29.414L331.435,191.016z
	"/>
<circle style="fill:#FFB69E;" cx="206.939" cy="49.814" r="49.814"/>
<g>
</g>
<g>
</g>
<g>
</g>
<g>
</g>
<g>
</g>
<g>
</g>
<g>
</g>
<g>
</g>
<g>
</g>
<g>
</g>
<g>
</g>
<g>
</g>
<g>
</g>
<g>
</g>
<g>
</g>
</svg>
